# xmcd
#
# Track frame offsets: 
#        150
#        16525
#        37412
#        69895
#        92515
#        114442
#        137767
#        139810
#        154575
#        172952
#        199650
#        219900
#
# Disc length: 3315 seconds
#
# Revision: 1
# Processed by: cddbd v1.5.2PL0 Copyright (c) Steve Scherf et al.
# Submitted via: ExactAudioCopy v0.99pb4
#
DISCID=970cf10c
DTITLE=Mary J. Blige - What's The 411? (Remix)
DYEAR=1993
DGENRE=R&B
TTITLE0=Leave A Message
TTITLE1=You Don't Have To Worry (Feat. Craig Mack)
TTITLE2=My Love (Feat. Heavy D.)
TTITLE3=Real Love
TTITLE4=What's The 411? (Feat. The Notorious B.I.G.)
TTITLE5=Reminisce
TTITLE6=Mary and Andre
TTITLE7=Sweet Thing
TTITLE8=Love No Limit
TTITLE9=You Remind Me
TTITLE10=Changes I've Been Going Through
TTITLE11=I Don't Want To Do Anything (Duet With K-Ci Hailey)
EXTD=
EXTT0=
EXTT1=
EXTT2=
EXTT3=
EXTT4=
EXTT5=
EXTT6=
EXTT7=
EXTT8=
EXTT9=
EXTT10=
EXTT11=
PLAYORDER=
